  0
SECTION
  2
HEADER
  9
$ACADVER
  1
AC1009
  9
$INSBASE
 10
0.0
 20
0.0
 30
0.0
  9
$EXTMIN
 10
-24.9531531606821808
 20
-3.08676686618263
 30
0.0
  9
$EXTMAX
 10
169.629912583954507
 20
128.8695569117234925
 30
0.0
  9
$LIMMIN
 10
0.0
 20
0.0
  9
$LIMMAX
 10
420.0
 20
297.0
  9
$ORTHOMODE
 70
     0
  9
$REGENMODE
 70
     1
  9
$FILLMODE
 70
     1
  9
$QTEXTMODE
 70
     0
  9
$MIRRTEXT
 70
     0
  9
$DRAGMODE
 70
     2
  9
$LTSCALE
 40
1.0
  9
$OSMODE
 70
    37
  9
$ATTMODE
 70
     1
  9
$TEXTSIZE
 40
2.5
  9
$TRACEWID
 40
1.0
  9
$TEXTSTYLE
  7
STANDARD
  9
$CLAYER
  8
0
  9
$CELTYPE
  6
BYLAYER
  9
$CECOLOR
 62
   256
  9
$DIMSCALE
 40
1.0
  9
$DIMASZ
 40
2.5
  9
$DIMEXO
 40
0.625
  9
$DIMDLI
 40
3.75
  9
$DIMRND
 40
0.0
  9
$DIMDLE
 40
0.0
  9
$DIMEXE
 40
1.25
  9
$DIMTP
 40
0.0
  9
$DIMTM
 40
0.0
  9
$DIMTXT
 40
2.5
  9
$DIMCEN
 40
2.5
  9
$DIMTSZ
 40
0.0
  9
$DIMTOL
 70
     0
  9
$DIMLIM
 70
     0
  9
$DIMTIH
 70
     0
  9
$DIMTOH
 70
     0
  9
$DIMSE1
 70
     0
  9
$DIMSE2
 70
     0
  9
$DIMTAD
 70
     1
  9
$DIMZIN
 70
     8
  9
$DIMBLK
  1

  9
$DIMASO
 70
     1
  9
$DIMSHO
 70
     1
  9
$DIMPOST
  1

  9
$DIMAPOST
  1

  9
$DIMALT
 70
     0
  9
$DIMALTD
 70
     3
  9
$DIMALTF
 40
0.03937007874016
  9
$DIMLFAC
 40
1.0
  9
$DIMTOFL
 70
     1
  9
$DIMTVP
 40
0.0
  9
$DIMTIX
 70
     0
  9
$DIMSOXD
 70
     0
  9
$DIMSAH
 70
     0
  9
$DIMBLK1
  1

  9
$DIMBLK2
  1

  9
$DIMSTYLE
  2
ISO-25
  9
$DIMCLRD
 70
     0
  9
$DIMCLRE
 70
     0
  9
$DIMCLRT
 70
     0
  9
$DIMTFAC
 40
1.0
  9
$DIMGAP
 40
0.625
  9
$LUNITS
 70
     2
  9
$LUPREC
 70
     4
  9
$SKETCHINC
 40
1.0
  9
$FILLETRAD
 40
0.0
  9
$AUNITS
 70
     0
  9
$AUPREC
 70
     0
  9
$MENU
  1
.
  9
$ELEVATION
 40
0.0
  9
$PELEVATION
 40
0.0
  9
$THICKNESS
 40
0.0
  9
$LIMCHECK
 70
     0
  9
$BLIPMODE
 70
     0
  9
$CHAMFERA
 40
0.0
  9
$CHAMFERB
 40
0.0
  9
$SKPOLY
 70
     0
  9
$TDCREATE
 40
2459306.6090046297758818
  9
$TDUPDATE
 40
2459311.5188310188241303
  9
$TDINDWG
 40
0.1023032407
  9
$TDUSRTIMER
 40
0.1023032407
  9
$USRTIMER
 70
     1
  9
$ANGBASE
 50
0.0
  9
$ANGDIR
 70
     0
  9
$PDMODE
 70
     0
  9
$PDSIZE
 40
0.0
  9
$PLINEWID
 40
0.0
  9
$COORDS
 70
     1
  9
$SPLFRAME
 70
     0
  9
$SPLINETYPE
 70
     6
  9
$SPLINESEGS
 70
     8
  9
$ATTDIA
 70
     1
  9
$ATTREQ
 70
     1
  9
$HANDLING
 70
     1
  9
$HANDSEED
  5
98D
  9
$SURFTAB1
 70
     6
  9
$SURFTAB2
 70
     6
  9
$SURFTYPE
 70
     6
  9
$SURFU
 70
     6
  9
$SURFV
 70
     6
  9
$UCSNAME
  2

  9
$UCSORG
 10
0.0
 20
0.0
 30
0.0
  9
$UCSXDIR
 10
1.0
 20
0.0
 30
0.0
  9
$UCSYDIR
 10
0.0
 20
1.0
 30
0.0
  9
$PUCSNAME
  2

  9
$PUCSORG
 10
0.0
 20
0.0
 30
0.0
  9
$PUCSXDIR
 10
1.0
 20
0.0
 30
0.0
  9
$PUCSYDIR
 10
0.0
 20
1.0
 30
0.0
  9
$USERI1
 70
     0
  9
$USERI2
 70
     0
  9
$USERI3
 70
     0
  9
$USERI4
 70
     0
  9
$USERI5
 70
     0
  9
$USERR1
 40
0.0
  9
$USERR2
 40
0.0
  9
$USERR3
 40
0.0
  9
$USERR4
 40
0.0
  9
$USERR5
 40
0.0
  9
$WORLDVIEW
 70
     1
  9
$SHADEDGE
 70
     3
  9
$SHADEDIF
 70
    70
  9
$TILEMODE
 70
     1
  9
$MAXACTVP
 70
    64
  9
$PLIMCHECK
 70
     0
  9
$PEXTMIN
 10
0.0
 20
0.0
 30
0.0
  9
$PEXTMAX
 10
0.0
 20
0.0
 30
0.0
  9
$PLIMMIN
 10
0.0
 20
0.0
  9
$PLIMMAX
 10
12.0
 20
9.0
  9
$UNITMODE
 70
     0
  9
$VISRETAIN
 70
     1
  9
$PLINEGEN
 70
     0
  9
$PSLTSCALE
 70
     1
  0
ENDSEC
  0
SECTION
  2
TABLES
  0
TABLE
  2
VPORT
 70
     1
  0
VPORT
  2
*ACTIVE
 70
     0
 10
0.0
 20
0.0
 11
1.0
 21
1.0
 12
-51.2409316100022423
 22
3.8096351832704012
 13
0.0
 23
0.0
 14
10.0
 24
10.0
 15
10.0
 25
10.0
 16
-0.0000000000000639
 26
0.0
 36
289.2628554900531981
 17
24.7058371677903708
 27
34.5371004107474633
 37
0.0
 40
162.3607988044554133
 41
2.644970414201183
 42
50.0
 43
0.0
 44
0.0
 50
0.0
 51
0.0
 71
     0
 72
  1000
 73
     1
 74
     3
 75
     0
 76
     1
 77
     0
 78
     0
  0
ENDTAB
  0
TABLE
  2
LTYPE
 70
     2
  0
LTYPE
  2
CONTINUOUS
 70
     0
  3
Solid line
 72
    65
 73
     0
 40
0.0
  0
ENDTAB
  0
TABLE
  2
LAYER
 70
     4
  0
LAYER
  2
0
 70
     0
 62
     7
  6
CONTINUOUS
  0
LAYER
  2
PDF_Í¼Ïñ
 70
     0
 62
     7
  6
CONTINUOUS
  0
LAYER
  2
PDF2_Í¼Ïñ
 70
     0
 62
     7
  6
CONTINUOUS
  0
LAYER
  2
DEFPOINTS
 70
     0
 62
     7
  6
CONTINUOUS
  0
ENDTAB
  0
TABLE
  2
STYLE
 70
     2
  0
STYLE
  2
STANDARD
 70
     0
 40
0.0
 41
1.0
 50
0.0
 71
     0
 42
2.5
  3
txt
  4

  0
STYLE
  2
ANNOTATIVE
 70
     0
 40
0.0
 41
1.0
 50
0.0
 71
     0
 42
2.5
  3
txt
  4

  0
ENDTAB
  0
TABLE
  2
VIEW
 70
     0
  0
ENDTAB
  0
TABLE
  2
UCS
 70
     0
  0
ENDTAB
  0
TABLE
  2
APPID
 70
    10
  0
APPID
  2
ACAD
 70
     0
  0
APPID
  2
ACAD_PSEXT
 70
     0
  0
APPID
  2
ACADANNOPO
 70
     0
  0
APPID
  2
ACADANNOTATIVE
 70
     0
  0
APPID
  2
ACAD_DSTYLE_DIMJAG
 70
     0
  0
APPID
  2
ACAD_DSTYLE_DIMTALN
 70
     0
  0
APPID
  2
ACAD_MLEADERVER
 70
     0
  0
APPID
  2
ACAD_NAV_VCDISPLAY
 70
     0
  0
APPID
  2
ACAD_EXEMPT_FROM_CAD_STANDARDS
 70
     0
  0
APPID
  2
ACADANNOMONITORALERTICONDI
 70
     0
  0
ENDTAB
  0
TABLE
  2
DIMSTYLE
 70
     4
  0
DIMSTYLE
  2
STANDARD
 70
     0
  3

  4

  5

  6

  7

 40
1.0
 41
0.18
 42
0.0625
 43
0.38
 44
0.18
 45
0.0
 46
0.0
 47
0.0
 48
0.0
140
0.18
141
0.09
142
0.0
143
25.3999999999999986
144
1.0
145
0.0
146
1.0
147
0.09
 71
     0
 72
     0
 73
     1
 74
     1
 75
     0
 76
     0
 77
     0
 78
     0
170
     0
171
     2
172
     0
173
     0
174
     0
175
     0
176
     0
177
     0
178
     0
  0
DIMSTYLE
  2
ANNOTATIVE
 70
     0
  3

  4

  5

  6

  7

 40
0.0
 41
2.5
 42
0.625
 43
3.75
 44
1.25
 45
0.0
 46
0.0
 47
0.0
 48
0.0
140
2.5
141
2.5
142
0.0
143
0.03937007874016
144
1.0
145
0.0
146
1.0
147
0.625
 71
     0
 72
     0
 73
     0
 74
     0
 75
     0
 76
     0
 77
     1
 78
     8
170
     0
171
     3
172
     1
173
     0
174
     0
175
     0
176
     0
177
     0
178
     0
  0
DIMSTYLE
  2
ISO-25
 70
     0
  3

  4

  5

  6

  7

 40
1.0
 41
2.5
 42
0.625
 43
3.75
 44
1.25
 45
0.0
 46
0.0
 47
0.0
 48
0.0
140
2.5
141
2.5
142
0.0
143
0.03937007874016
144
1.0
145
0.0
146
1.0
147
0.625
 71
     0
 72
     0
 73
     0
 74
     0
 75
     0
 76
     0
 77
     1
 78
     8
170
     0
171
     3
172
     1
173
     0
174
     0
175
     0
176
     0
177
     0
178
     0
  0
ENDTAB
  0
ENDSEC
  0
SECTION
  2
BLOCKS
  0
BLOCK
  8
0
  2
$MODEL_SPACE
 70
     0
 10
0.0
 20
0.0
 30
0.0
  3
$MODEL_SPACE
  1

  0
ENDBLK
  5
21
  8
0
  0
BLOCK
 67
     1
  8
0
  2
$PAPER_SPACE
 70
     0
 10
0.0
 20
0.0
 30
0.0
  3
$PAPER_SPACE
  1

  0
ENDBLK
  5
D5
 67
     1
  8
0
  0
BLOCK
  8
0
  2
*D1
 70
     1
 10
0.0
 20
0.0
 30
0.0
  3
*D1
  1

  0
LINE
  5
5DC
  8
0
 62
     0
 10
-11.8442373273892496
 20
-0.0363169187137237
 30
0.0
 11
-22.3738557527695008
 21
-0.0363169187137254
 31
0.0
  0
LINE
  5
5DD
  8
0
 62
     0
 10
-13.7308312481861901
 20
99.9619255211888742
 30
0.0
 11
-22.3738557527695185
 21
99.9619255211888742
 31
0.0
  0
LINE
  5
5DE
  8
0
 62
     0
 10
-21.1238557527695008
 20
2.4636830812862751
 30
0.0
 11
-21.1238557527695185
 21
97.4619255211888742
 31
0.0
  0
SOLID
  5
5DF
  8
0
 62
     0
 10
-21.5405224194361686
 20
2.4636830812862751
 30
0.0
 11
-20.7071890861028294
 21
2.4636830812862751
 31
0.0
 12
-21.1238557527695008
 22
-0.0363169187137252
 32
0.0
 13
-21.1238557527695008
 23
-0.0363169187137252
 33
0.0
  0
SOLID
  5
5E0
  8
0
 62
     0
 10
-21.5405224194361899
 20
97.4619255211888742
 30
0.0
 11
-20.7071890861028507
 21
97.4619255211888742
 31
0.0
 12
-21.1238557527695185
 22
99.9619255211888742
 32
0.0
 13
-21.1238557527695185
 23
99.9619255211888742
 33
0.0
  0
INSERT
  5
5E1
  8
0
  2
*U4
 10
0.0
 20
0.0
 30
0.0
  0
POINT
  5
5E2
  8
DEFPOINTS
 62
     0
 10
-11.2192373273892496
 20
-0.0363169187137236
 30
0.0
  0
POINT
  5
5E3
  8
DEFPOINTS
 62
     0
 10
-13.1058312481861901
 20
99.9619255211888742
 30
0.0
  0
POINT
  5
5E4
  8
DEFPOINTS
 62
     0
 10
-21.1238557527695185
 20
99.9619255211888742
 30
0.0
  0
ENDBLK
  5
5B3
  8
0
  0
BLOCK
  8
0
  2
*D2
 70
     1
 10
0.0
 20
0.0
 30
0.0
  3
*D2
  1

  0
LINE
  5
5F7
  8
0
 62
     0
 10
0.0353870529865971
 20
110.1395703033905988
 30
0.0
 11
0.0353870529865981
 21
125.8383495447385059
 31
0.0
  0
LINE
  5
5F8
  8
0
 62
     0
 10
100.0146085047123989
 20
110.610625761137797
 30
0.0
 11
100.0146085047123989
 21
125.8383495447385059
 31
0.0
  0
LINE
  5
5F9
  8
0
 62
     0
 10
2.5353870529865969
 20
124.5883495447385059
 30
0.0
 11
97.5146085047124558
 21
124.5883495447385059
 31
0.0
  0
SOLID
  5
5FA
  8
0
 62
     0
 10
2.5353870529865969
 20
125.0050162114052057
 30
0.0
 11
2.5353870529865969
 21
124.171682878071806
 31
0.0
 12
0.035387052986598
 22
124.5883495447385059
 32
0.0
 13
0.035387052986598
 23
124.5883495447385059
 33
0.0
  0
SOLID
  5
5FB
  8
0
 62
     0
 10
97.5146085047124558
 20
125.0050162114052057
 30
0.0
 11
97.5146085047124558
 21
124.171682878071806
 31
0.0
 12
100.0146085047123989
 22
124.5883495447385059
 32
0.0
 13
100.0146085047123989
 23
124.5883495447385059
 33
0.0
  0
INSERT
  5
5FC
  8
0
  2
*U5
 10
0.0
 20
0.0
 30
0.0
  0
POINT
  5
5FD
  8
DEFPOINTS
 62
     0
 10
0.0353870529865971
 20
109.5145703033905988
 30
0.0
  0
POINT
  5
5FE
  8
DEFPOINTS
 62
     0
 10
100.0146085047123989
 20
109.985625761137797
 30
0.0
  0
POINT
  5
5FF
  8
DEFPOINTS
 62
     0
 10
100.0146085047123989
 20
124.5883495447385059
 30
0.0
  0
ENDBLK
  5
5C0
  8
0
  0
BLOCK
  8
0
  2
*U4
 70
     1
 10
0.0
 20
0.0
 30
0.0
  3
*U4
  1

  0
TEXT
  5
983
  8
0
 62
     0
 10
-21.7914887677763112
 20
46.9426815181543375
 30
0.0
 40
2.5
  1
100
 50
90.0
  0
ENDBLK
  5
985
  8
0
  0
BLOCK
  8
0
  2
*U5
 70
     1
 10
0.0
 20
0.0
 30
0.0
  3
*U5
  1

  0
TEXT
  5
987
  8
0
 62
     0
 10
45.6593770421510072
 20
125.7078925188176015
 30
0.0
 40
2.5
  1
99,98
  0
ENDBLK
  5
989
  8
0
  0
ENDSEC
  0
SECTION
  2
ENTITIES
  0
ARC
  5
2B0
  8
0
 10
28.199675529744141
 20
36.2957759797616433
 30
0.0
 40
34.3415504704975518
 50
73.263421501287155
 51
105.5721087717534061
  0
ARC
  5
2B1
  8
0
 10
48.210554538195268
 20
68.1027031922255048
 30
0.0
 40
10.1789195251294906
 50
142.3153687415450861
 51
173.9100646679488023
  0
ARC
  5
2B2
  8
0
 10
46.9247565414964498
 20
69.1026844005139225
 30
0.0
 40
8.5500533890687702
 50
94.474321262942766
 51
142.3511890447715871
  0
ARC
  5
2B3
  8
0
 10
46.2577472889698527
 20
65.4169810187525229
 30
0.0
 40
12.2096996049521795
 50
55.6199688679597415
 51
90.0
  0
ARC
  5
2B5
  8
0
 10
49.0270631686928127
 20
66.9848130072177668
 30
0.0
 40
8.0641816715984742
 50
329.7640018342505073
 51
6.4258351425234057
  0
ARC
  5
2B6
  8
0
 10
46.1475794117319396
 20
67.128655715222564
 30
0.0
 40
10.9106128630935597
 50
21.0754302334472108
 51
50.0580597408686074
  0
ARC
  5
2B7
  8
0
 10
43.8349766412307815
 20
66.5779305581543071
 30
0.0
 40
13.2703634967871906
 50
5.6626527723772719
 51
19.70352646234522
  0
ARC
  5
2B8
  8
0
 10
48.150914573318758
 20
67.0252232193976454
 30
0.0
 40
8.850816678440232
 50
309.209119510673986
 51
332.3950010966764808
  0
ARC
  5
2B9
  8
0
 10
47.7160326825076524
 20
67.6359165088884282
 30
0.0
 40
9.5990458760310204
 50
287.048475680814704
 51
308.9161298116408148
  0
ARC
  5
2BA
  8
0
 10
29.5952657180175613
 20
45.641629795938691
 30
0.0
 40
25.0264087484224191
 50
53.8494400371614219
 51
70.1600422041001934
  0
ARC
  5
2BB
  8
0
 10
31.85671096489639
 20
49.2140316218533087
 30
0.0
 40
20.8096574920550701
 50
39.3959616476344721
 51
53.074784382708998
  0
ARC
  5
2BC
  8
0
 10
32.5259317913996568
 20
49.5099774364741165
 30
0.0
 40
20.1056241805513309
 50
26.4287512466917285
 51
39.9546273962316292
  0
ARC
  5
2BD
  8
0
 10
12.3239295974990597
 20
67.2669216920860435
 30
0.0
 40
6.9830808848790289
 50
17.585956491413679
 51
58.560845896861899
  0
ARC
  5
2BE
  8
0
 10
7.2651742064608484
 20
60.2841440228872187
 30
0.0
 40
15.5939290065648493
 50
56.0838742815673115
 51
74.5253479971021591
  0
ARC
  5
2BF
  8
0
 10
9.1095872320960876
 20
66.5612784363898129
 30
0.0
 40
9.0528209582188044
 50
75.1755799908401201
 51
104.8704268215988975
  0
ARC
  5
2C0
  8
0
 10
9.7464942872512541
 20
66.2548650876013738
 30
0.0
 40
9.5275661597037562
 50
108.1011271191435981
 51
129.5780965730095033
  0
ARC
  5
2C1
  8
0
 10
10.0751799211423894
 20
67.3627431824578196
 30
0.0
 40
8.9347140298702286
 50
135.7410403308813045
 51
161.9656736501235912
  0
ARC
  5
2C2
  8
0
 10
10.3183495230141098
 20
67.0377513863168275
 30
0.0
 40
9.2694976984797766
 50
160.5207278106695981
 51
180.1618891242702034
  0
ARC
  5
2C3
  8
0
 10
12.3585899903688095
 20
66.7513482130964633
 30
0.0
 40
11.3126942349072994
 50
178.6819780604367907
 51
203.880022818715986
  0
ARC
  5
2C4
  8
0
 10
10.7356255107749305
 20
66.1113374204723812
 30
0.0
 40
9.5698416940767714
 50
204.3098435504743122
 51
225.9192575063389086
  0
ARC
  5
2C5
  8
0
 10
9.975061746647194
 20
65.2524702862882435
 30
0.0
 40
8.4239184874528892
 50
225.5714876601579988
 51
250.1772380285175075
  0
ARC
  5
2C6
  8
0
 10
24.556198996082621
 20
51.7626083575804188
 30
0.0
 40
18.4755286889896908
 50
107.5645437864677945
 51
120.9333139616387029
  0
ARC
  5
2C7
  8
0
 10
24.4739051625499187
 20
52.7260570141366927
 30
0.0
 40
17.6119332131129198
 50
122.3149748335503944
 51
137.867593712249402
  0
ARC
  5
2C8
  8
0
 10
28.2531296525630289
 20
50.4836779769684583
 30
0.0
 40
21.936236356242361
 50
140.1466745023510043
 51
150.9700211699565955
  0
ARC
  5
2C9
  8
0
 10
30.1121056358215498
 20
47.9073361595285121
 30
0.0
 40
24.8486056842328793
 50
147.8543594258364067
 51
157.7214087795099999
  0
ARC
  5
2CA
  8
0
 10
3.5354221321554009
 20
58.2147833748100183
 30
0.0
 40
10.1032665998647495
 50
38.7667257978466679
 51
66.3737539052549295
  0
ARC
  5
2CB
  8
0
 10
4.773718950601765
 20
61.3317758413136431
 30
0.0
 40
6.7522462527017932
 50
65.4005004464666371
 51
88.3734100425091356
  0
ARC
  5
2CC
  8
0
 10
4.6303653575414128
 20
60.3203293376718221
 30
0.0
 40
7.7681995079814392
 50
87.5282339425092744
 51
103.2006719261834036
  0
ARC
  5
2CD
  8
0
 10
4.6254228159172737
 20
61.9052969728428479
 30
0.0
 40
6.2342218682652266
 50
106.4847274228367979
 51
125.0082044632921026
  0
ARC
  5
2CE
  8
0
 10
49.5557753350878727
 20
51.6547090402410802
 30
0.0
 40
17.8751331710763885
 50
65.2457356245134292
 51
80.5229809884970678
  0
ARC
  5
2CF
  8
0
 10
51.8000630391600367
 20
64.0463941779360653
 30
0.0
 40
5.285889715544311
 50
82.4022306086742304
 51
120.5022645934892012
  0
ARC
  5
2D0
  8
0
 10
52.3627061343753581
 20
63.540162478174409
 30
0.0
 40
6.0119641245116791
 50
122.6740632967125038
 51
153.3680644042738948
  0
ARC
  5
2D1
  8
0
 10
51.3990984199737895
 20
63.8178921224011333
 30
0.0
 40
5.0294516740236448
 50
151.275100930013906
 51
176.5689706518508046
  0
ARC
  5
2D2
  8
0
 10
46.1003009565060324
 20
43.1973571956910689
 30
0.0
 40
41.4638909502191524
 50
160.0751859419600862
 51
167.0958127846787988
  0
ARC
  5
2D3
  8
0
 10
25.0827219824856087
 20
48.6518908573281479
 30
0.0
 40
19.7688221347159789
 50
168.9020497625016048
 51
187.6704548069832867
  0
ARC
  5
2D4
  8
0
 10
19.1242670874317895
 20
47.3244661279796333
 30
0.0
 40
13.6963882717937704
 50
185.493617319424402
 51
210.9070319327647951
  0
ARC
  5
2D5
  8
0
 10
17.7761860852423084
 20
47.3532346738639873
 30
0.0
 40
12.5749736009533404
 50
214.1762466755864978
 51
236.6453584961660965
  0
ARC
  5
2D6
  8
0
 10
19.0046906740477191
 20
48.4778277859097599
 30
0.0
 40
14.19564294050641
 50
234.9990837275146873
 51
252.1723108888083971
  0
ARC
  5
2D7
  8
0
 10
23.0140130672313816
 20
59.1412994210696326
 30
0.0
 40
25.5805059967031809
 50
250.9355609651393024
 51
266.1449623250717877
  0
ARC
  5
2D8
  8
0
 10
29.074226744164541
 20
121.4229952329988009
 30
0.0
 40
88.1483304025870638
 50
264.9364340869939838
 51
274.6566909025399923
  0
ARC
  5
2D9
  8
0
 10
34.6115998792329265
 20
61.4827869794034214
 30
0.0
 40
27.9640516075715908
 50
273.3189595383501
 51
288.961488015040004
  0
ARC
  5
2DA
  8
0
 10
40.9150511021814793
 20
38.357889196995032
 30
0.0
 40
4.3334707841572992
 50
309.9564810818179126
 51
328.5447735426644726
  0
ARC
  5
2DB
  8
0
 10
77.9621900406130948
 20
13.90125938062444
 30
0.0
 40
40.0610182399192922
 50
140.2883982017303879
 51
146.3555899895605137
  0
ARC
  5
2DC
  8
0
 10
61.7656599889710378
 20
28.7519534202469202
 30
0.0
 40
18.1449742430268195
 50
126.8150257564460048
 51
143.6875707011224108
  0
ARC
  5
2DD
  8
0
 10
22.4971313188840796
 20
46.2657183425800511
 30
0.0
 40
30.5700210919376296
 50
13.3147240139374397
 51
23.5065304520528215
  0
ARC
  5
2DE
  8
0
 10
33.6708451373191409
 20
48.532930658625169
 30
0.0
 40
19.1780337612079705
 50
359.0833445831993913
 51
14.4113356602565492
  0
ARC
  5
2DF
  8
0
 10
57.6684475599957977
 20
42.0554742461456712
 30
0.0
 40
7.8312698214416736
 50
128.0056809648945091
 51
146.6397604688667968
  0
ARC
  5
2E1
  8
0
 10
54.2685851227799816
 20
44.8726369175520929
 30
0.0
 40
3.4762157129589211
 50
154.6329942105247142
 51
183.0294361399272134
  0
ARC
  5
2E2
  8
0
 10
65.2401515263735661
 20
44.9567605176948177
 30
0.0
 40
14.4454074180942502
 50
181.0624050709741084
 51
186.6722514496825056
  0
ARC
  5
2E3
  8
0
 10
54.2173457456806602
 20
46.3448843863998192
 30
0.0
 40
2.3277620258123668
 50
61.8123069848965301
 51
126.0820976146751065
  0
ARC
  5
2E4
  8
0
 10
53.0958222425957729
 20
43.620997575710561
 30
0.0
 40
5.2668191392493036
 50
31.3294736396404403
 51
65.0574268425087183
  0
ARC
  5
2E5
  8
0
 10
55.0454609804266184
 20
44.6160016392135077
 30
0.0
 40
3.0884405926328129
 50
346.6662461378905959
 51
34.3698040276699786
  0
ARC
  5
2E6
  8
0
 10
54.2223299405952588
 20
45.1155583433805987
 30
0.0
 40
4.0155354217537509
 50
311.0892214123953181
 51
342.4352465370724872
  0
ARC
  5
2E7
  8
0
 10
52.6172811080424125
 20
46.444875005947388
 30
0.0
 40
6.0816066709800207
 50
297.1149612838440817
 51
314.2566556175560208
  0
ARC
  5
2E8
  8
0
 10
54.5310684320272969
 20
44.7012485414453522
 30
0.0
 40
3.9068163717644171
 50
201.3588843820446073
 51
236.7344103481673869
  0
ARC
  5
2E9
  8
0
 10
54.2572501724806529
 20
43.9786537548871905
 30
0.0
 40
3.1568751352840141
 50
233.6945967584802872
 51
291.0110159821895195
  0
ARC
  5
2EA
  8
0
 10
30.0724396259918088
 20
45.9023487535553585
 30
0.0
 40
25.7809768747481094
 50
337.9631149567725856
 51
349.1099376566725141
  0
ARC
  5
2EB
  8
0
 10
12.2628877927457705
 20
52.421163044834671
 30
0.0
 40
44.7398613934362928
 50
331.8911303056561906
 51
338.782291205730985
  0
ARC
  5
2EC
  8
0
 10
8.5090948066829402
 20
57.8393107171487415
 30
0.0
 40
50.6931322132445104
 50
323.2169160888702777
 51
328.4865119074826225
  0
ARC
  5
2ED
  8
0
 10
24.4919396623433201
 20
46.4121709007937611
 30
0.0
 40
31.0527327918935789
 50
314.5000867987585025
 51
322.4452069413853792
  0
ARC
  5
2EE
  8
0
 10
83.7764452121711258
 20
-17.8338745560970686
 30
0.0
 40
86.9762752816583316
 50
142.6245213171669093
 51
145.7475658965645948
  0
ARC
  5
2EF
  8
0
 10
37.2099342365884311
 20
13.5330708071043304
 30
0.0
 40
30.8327107944353109
 50
145.2223130893175949
 51
153.2732645098598141
  0
ARC
  5
2F0
  8
0
 10
19.1316881077627592
 20
22.6300992962844312
 30
0.0
 40
10.5946568335651996
 50
153.2445047998874941
 51
168.6842123652475038
  0
ARC
  5
2F1
  8
0
 10
11.5169981828945502
 20
24.1062780447432807
 30
0.0
 40
2.838724531552006
 50
167.7427278397557018
 51
194.9670678438110087
  0
ARC
  5
2F2
  8
0
 10
10.5076184355001701
 20
19.763621434174599
 30
0.0
 40
4.004002639309582
 50
115.647086783273906
 51
165.2564857259062023
  0
ARC
  5
2F3
  8
0
 10
10.8231706804835497
 20
20.2274181974472711
 30
0.0
 40
4.2243643767118932
 50
172.447990205183487
 51
223.5134067727348963
  0
ARC
  5
2F4
  8
0
 10
9.9992356059140217
 20
19.35816218521785
 30
0.0
 40
3.028989092956186
 50
222.3197954231916071
 51
273.0852743832646183
  0
ARC
  5
2F5
  8
0
 10
10.1622623923888504
 20
19.3398504763007715
 30
0.0
 40
3.006286973906672
 50
270.0
 51
322.6593261154799279
  0
ARC
  5
2F6
  8
0
 10
3.7944254859322779
 20
24.8668533030763008
 30
0.0
 40
11.4337844788961007
 50
319.9935886124147828
 51
329.3517318930021247
  0
ARC
  5
2F7
  8
0
 10
10.09077554986664
 20
19.7448323700226887
 30
0.0
 40
3.8596601823639869
 50
68.7051364926847299
 51
109.9386390638598954
  0
ARC
  5
2F8
  8
0
 10
9.6647095061059716
 20
19.4408193482645189
 30
0.0
 40
4.307193388598006
 50
25.6612473109395083
 51
64.8902895409355409
  0
ARC
  5
2F9
  8
0
 10
58.3564181839989402
 20
21.3060474258526007
 30
0.0
 40
44.8093332316797301
 50
174.7449687372389917
 51
180.0
  0
ARC
  5
2FA
  8
0
 10
44.21036392721998
 20
21.3060474258526291
 30
0.0
 40
30.6632789749007806
 50
180.0
 51
184.2412751045019945
  0
ARC
  5
2FB
  8
0
 10
196.2175946526242001
 20
13.70938433297062
 30
0.0
 40
182.6642843973419872
 50
178.3282588748949991
 51
181.7274667730717113
  0
ARC
  5
2FC
  8
0
 10
15.4175239150346499
 20
4.1839939978305321
 30
0.0
 40
4.3959318912190284
 50
113.9031684698723978
 51
136.6820902577360073
  0
ARC
  5
2FD
  8
0
 10
14.3589676042878107
 20
5.2492299539298184
 30
0.0
 40
2.8953810795850621
 50
137.6478868592566869
 51
177.1593242428218957
  0
ARC
  5
2FE
  8
0
 10
14.3061585952738799
 20
5.4127110027238317
 30
0.0
 40
2.839084614466898
 50
180.4034095695637063
 51
224.0119051480847929
  0
ARC
  5
2FF
  8
0
 10
16.9133616226540084
 20
7.932853816794025
 30
0.0
 40
6.4651881728279497
 50
224.0205030390100944
 51
251.9760560361941089
  0
ARC
  5
300
  8
0
 10
21.622051056988429
 20
25.6181026992385696
 30
0.0
 40
24.7594892243504106
 50
254.2779248874419125
 51
283.7183731982415225
  0
ARC
  5
301
  8
0
 10
25.7648310039468598
 20
8.5321990857058143
 30
0.0
 40
7.1785861145164391
 50
283.9364060281587854
 51
304.7105591484469187
  0
ARC
  5
302
  8
0
 10
35.3920264321507574
 20
11.0364449545538204
 30
0.0
 40
10.0665476347539098
 50
236.6133263703449927
 51
261.4383646033796822
  0
ARC
  5
303
  8
0
 10
38.0464121496343708
 20
20.9764628452371404
 30
0.0
 40
20.3232439850857105
 50
258.2086337229790161
 51
287.1768922508658193
  0
ARC
  5
304
  8
0
 10
42.0057262746376168
 20
8.3675626936229417
 30
0.0
 40
7.1077012480270358
 50
286.7010905417711797
 51
308.0149048221337011
  0
ARC
  5
305
  8
0
 10
44.1752195613383023
 20
5.3786104956432137
 30
0.0
 40
3.419267284476704
 50
310.2199467307486884
 51
354.5638685693039065
  0
ARC
  5
306
  8
0
 10
45.0770167746296622
 20
5.1898280402621779
 30
0.0
 40
2.5057388016757112
 50
356.9082840210530776
 51
39.9481834539051803
  0
ARC
  5
307
  8
0
 10
43.7190609594717685
 20
4.4208111197415176
 30
0.0
 40
4.0504196574009992
 50
35.9503798433135415
 51
64.545727231543637
  0
ARC
  5
308
  8
0
 10
-244.8190127635824069
 20
30.4882163933275017
 30
0.0
 40
291.142677798131615
 50
355.5853973819657199
 51
358.7749705891428107
  0
LINE
  5
309
  8
0
 10
13.6363268444468506
 20
8.2028936218527502
 30
0.0
 11
45.4598933142770107
 21
8.0780508047394424
 31
0.0
  0
POLYLINE
  5
30A
  8
0
 66
     1
 10
0.0
 20
0.0
 30
0.0
  0
VERTEX
  5
97E
  8
0
 10
29.8525406765562309
 20
2.6311205202244188
 30
0.0
  0
VERTEX
  5
97F
  8
0
 10
29.8525406765562309
 20
8.139277941956168
 30
0.0
  0
VERTEX
  5
980
  8
0
 10
29.8525406765562309
 20
9.9854860996791892
 30
0.0
  0
SEQEND
  5
981
  8
0
  0
LINE
  5
30B
  8
0
 10
29.8525406765562309
 20
9.9854860996791892
 30
0.0
 11
31.0463375117147891
 21
9.9854860996791892
 31
0.0
  0
LINE
  5
312
  8
0
 10
29.8525406765562309
 20
9.9854860996791892
 30
0.0
 11
31.0463375117147891
 21
9.9854860996791892
 31
0.0
  0
LINE
  5
313
  8
0
 10
29.8525406765562309
 20
9.9854860996791892
 30
0.0
 11
28.6587438413976692
 21
9.9854860996791892
 31
0.0
  0
ARC
  5
314
  8
0
 10
-46.0266054138307226
 20
24.2638282620841785
 30
0.0
 40
92.2837267249235254
 50
0.0
 51
1.460417382673671
  0
CIRCLE
  5
315
  8
0
 10
18.5079445713660888
 20
47.074368824695469
 30
0.0
 40
2.5760848289814899
  0
CIRCLE
  5
316
  8
0
 10
39.2023413460804804
 20
47.2468448709892073
 30
0.0
 40
2.5760848289814899
  0
ARC
  5
317
  8
0
 10
28.8031273298471113
 20
41.2314188496942435
 30
0.0
 40
6.4424359500560353
 50
89.2866176647764718
 51
140.3711932315059983
  0
ARC
  5
318
  8
0
 10
28.1145806628517505
 20
42.3090003512050288
 30
0.0
 40
5.2394222853333661
 50
144.6485733238041007
 51
176.4525946341852887
  0
ARC
  5
319
  8
0
 10
27.060969697549659
 20
42.1657612112426534
 30
0.0
 40
4.2018520320774471
 50
173.6130480803865908
 51
224.5531780266655062
  0
ARC
  5
31A
  8
0
 10
28.2781640223093689
 20
44.7193095482974599
 30
0.0
 40
6.9283524411355657
 50
232.5654463965543925
 51
275.081988875635318
  0
ARC
  5
31B
  8
0
 10
28.9747239420322984
 20
41.2315676598613265
 30
0.0
 40
6.4424359500560353
 50
39.7281816020475773
 51
90.8127571687772388
  0
ARC
  5
31C
  8
0
 10
29.6614005975250095
 20
42.3103417677402902
 30
0.0
 40
5.2394222853333661
 50
3.6467801993683402
 51
35.450801509749553
  0
ARC
  5
31D
  8
0
 10
30.7152584145118404
 20
42.1689302441725218
 30
0.0
 40
4.2018520320774471
 50
315.5461968068880196
 51
6.4863267531669946
  0
ARC
  5
31E
  8
0
 10
29.4936370024582004
 20
44.7203636176931028
 30
0.0
 40
6.9283524411355657
 50
265.0173859579185773
 51
307.5339284369991901
  0
ARC
  5
31F
  8
0
 10
28.45867580373584
 20
44.2947577565634489
 30
0.0
 40
1.8236548742583041
 50
307.168745150655127
 51
237.9371354054212873
  0
ARC
  5
320
  8
0
 10
82.8439907410994749
 20
103.6748019497737943
 30
0.0
 40
80.8691381920296521
 50
228.7850466462151928
 51
230.8288644074781928
  0
ARC
  5
321
  8
0
 10
31.3262530242536492
 20
40.3082145996923131
 30
0.0
 40
0.8017422294565024
 50
325.9871185050494091
 51
56.915563172260903
  0
ARC
  5
322
  8
0
 10
31.4397706022410794
 20
40.5351472285684693
 30
0.0
 40
0.8716893160279074
 50
228.8866755225801057
 51
309.2104208161504744
  0
ARC
  5
323
  8
0
 10
46.7177734251717567
 20
57.4766527417179418
 30
0.0
 40
23.684556761536129
 50
220.024029641961306
 51
227.989840480458696
  0
ARC
  5
324
  8
0
 10
22.4530104720802193
 20
45.0082238315232601
 30
0.0
 40
6.7219759670500281
 50
307.6125025759420168
 51
335.7268470800806881
  0
ARC
  5
325
  8
0
 10
26.0270985679517608
 20
40.2880755633243481
 30
0.0
 40
0.8030798405902611
 50
228.8497769067936076
 51
311.1502230932061934
  0
ARC
  5
326
  8
0
 10
25.9700839124592093
 20
40.1701520629407725
 30
0.0
 40
0.6776546174496012
 50
125.7528638877702036
 51
225.9174345965894872
  0
ARC
  5
327
  8
0
 10
18.4604106527630911
 20
49.358243033984067
 30
0.0
 40
11.1902918554835793
 50
309.4723045901545788
 51
323.8004994647371859
  0
ARC
  5
328
  8
0
 10
29.0357808044601597
 20
9.1299518660701384
 30
0.0
 40
23.3675262858954298
 50
89.5171015491474407
 51
104.0454083288069
  0
ARC
  5
329
  8
0
 10
25.533581475672559
 20
22.7783241081614491
 30
0.0
 40
9.2776292823996762
 50
103.5194661714408966
 51
180.6344321324527016
  0
ARC
  5
32A
  8
0
 10
27.4406907479735693
 20
23.2178543836188709
 30
0.0
 40
11.1973076472900299
 50
182.7757826677029129
 51
243.7480815127144069
  0
ARC
  5
32B
  8
0
 10
29.9564803054227902
 20
28.3750077288559517
 30
0.0
 40
16.9353405055729596
 50
243.8319839239690054
 51
269.6071227935303796
  0
ARC
  5
32C
  8
0
 10
29.4374261100654486
 20
30.7672040989044611
 30
0.0
 40
19.3313383923757414
 50
271.1943213175670735
 51
293.6520532596809971
  0
ARC
  5
32D
  8
0
 10
32.2326893961247976
 20
22.9343809183289302
 30
0.0
 40
11.0504084908795193
 50
296.6707022319491216
 51
359.9905382387239001
  0
ARC
  5
32E
  8
0
 10
33.9579077242760121
 20
22.554020358525019
 30
0.0
 40
9.3328697645915302
 50
2.3245207421082741
 51
75.36462406254212
  0
ARC
  5
32F
  8
0
 10
29.3837253361243
 20
5.7227166902940168
 30
0.0
 40
26.7743573326253603
 50
74.9942948939159066
 51
90.3231371821723741
  0
ARC
  5
330
  8
0
 10
30.0920678154051693
 20
23.9586969921859101
 30
0.0
 40
8.7944340665038663
 50
185.1879204791806046
 51
355.0209251943816184
  0
ARC
  5
331
  8
0
 10
23.0246680724417416
 20
22.5050392752685013
 30
0.0
 40
1.8146771474706851
 50
94.9454827658098566
 51
158.7251344458206006
  0
ARC
  5
332
  8
0
 10
36.7632138621865323
 20
21.6740918210378695
 30
0.0
 40
2.5798433452267489
 50
35.9691216213983509
 51
81.5579482934880389
  0
ARC
  5
334
  8
0
 10
29.468182971674711
 20
-63.8409613822273485
 30
0.0
 40
88.4006412568215012
 50
85.0200700033782795
 51
94.281662518547023
  0
DIMENSION
  5
5B0
  8
0
  2
*D1
 10
-21.1238557527695185
 20
99.9619255211888742
 30
0.0
 11
-21.1238557527694901
 21
49.9628043012375613
 31
0.0
 70
   128
 13
-11.2192373273892407
 23
-0.0363169187137236
 33
0.0
 14
-13.1058312481861901
 24
99.9619255211888174
 34
0.0
 50
90.0
  0
DIMENSION
  5
5BD
  8
0
  2
*D2
 10
100.0146085047123989
 20
124.5883495447385059
 30
0.0
 11
50.0249977788495173
 21
124.5883495447385059
 31
0.0
 70
   128
 13
0.0353870529865971
 23
109.5145703033905988
 33
0.0
 14
100.0146085047123989
 24
109.985625761137797
 34
0.0
  0
ARC
  5
884
  8
0
 10
32.1998811116903383
 20
43.674519602285109
 30
0.0
 40
22.2383863940458113
 50
334.2619698861170718
 51
342.9644457234002743
  0
ARC
  5
885
  8
0
 10
35.28687740422302
 20
42.750694861710393
 30
0.0
 40
19.0632566426267402
 50
318.6688213483805043
 51
332.733825112426473
  0
ARC
  5
886
  8
0
 10
53.0181420510787191
 20
37.3157001786324614
 30
0.0
 40
0.471045127372152
 50
340.6273126196451813
 51
107.8928241516793065
  0
ARC
  5
887
  8
0
 10
53.3705287617476927
 20
36.9791037672473877
 30
0.0
 40
0.9290428115844951
 50
122.3491311174970946
 51
168.2223084222426905
  0
ARC
  5
888
  8
0
 10
36.5491077603770975
 20
41.7095888206358865
 30
0.0
 40
16.5471780830708504
 50
331.5164943403740949
 51
344.0726300404722906
  0
ARC
  5
889
  8
0
 10
33.4797036264239409
 20
43.848716937643637
 30
0.0
 40
20.2694840960658489
 50
319.913771283084202
 51
330.3394304868043037
  0
ARC
  5
88A
  8
0
 10
49.3606421407615414
 20
30.5427143144250302
 30
0.0
 40
0.4512855070858534
 50
145.7975690709479863
 51
302.2672655021470973
  0
ARC
  5
8DF
  8
0
 10
30.6023756550596815
 20
17.9254202108379417
 30
0.0
 40
22.0920065990852095
 50
138.0499185393223058
 51
152.3196474472640034
  0
ARC
  5
8E0
  8
0
 10
11.5432541032592493
 20
27.935432651557651
 30
0.0
 40
0.5642111220810513
 50
153.4065384706725865
 51
276.1294336724556047
  0
ARC
  5
8E1
  8
0
 10
11.5055939070792306
 20
28.0717507069951999
 30
0.0
 40
0.7041431733831832
 50
277.9922739154765736
 51
338.0053597421282916
  0
ARC
  5
8E2
  8
0
 10
30.5012003012261417
 20
18.8883812128749398
 30
0.0
 40
20.3964529322084296
 50
143.9041334437270905
 51
154.067372691074695
  0
ARC
  5
8E3
  8
0
 10
46.7131204376917708
 20
6.5125794990667751
 30
0.0
 40
40.7897365317660672
 50
141.1018565969415022
 51
143.273442591545205
  0
ARC
  5
8E4
  8
0
 10
14.5831487916101299
 20
32.4282856072221577
 30
0.0
 40
0.4893415939210907
 50
321.848535815652383
 51
147.1745435270755138
  0
ENDSEC
  0
EOF
